<?xml version="1.0" encoding="utf-8"?>
<!-- Generator: Adobe Illustrator 25.1.0, SVG Export Plug-In . SVG Version: 6.00 Build 0)  -->
<svg version="1.1" id="Capa_1" xmlns="http://www.w3.org/2000/svg" xmlns:xlink="http://www.w3.org/1999/xlink" x="0px" y="0px"
	 viewBox="0 0 512 512" style="enable-background:new 0 0 512 512;" xml:space="preserve">
<style type="text/css">
	.st0{fill:#781D1E;}
</style>
<g id="_x30_55---Comic-Collecting">
	<path id="Shape" class="st0" d="M99,324.3l0.2,0.1c10.2,5.5,21.5,8.4,33.1,8.4c25.2,0,39.7,1.8,58.7-8.4l0.2-0.1
		c24.4-13.5,39.4-39.2,39.3-67.1V153.6c0-6.5-3.7-12.5-9.6-15.4s-12.9-2.1-18,2L171.7,165c-17.5-3.8-35.7-3.8-53.2,0l-31.1-24.9
		c-5.1-4-12.1-4.8-18-1.9s-9.6,8.8-9.6,15.3v103.6C59.5,285.1,74.6,310.8,99,324.3z M132.3,315.7c-7.3,0-14.6-1.5-21.3-4.5v-21.1
		c0-9.4,7.6-17.1,17.1-17.1h34.1c9.4,0,17.1,7.6,17.1,17.1v21.1C165.8,317.1,156.7,315.7,132.3,315.7z M76.7,153.5
		c35.8,28.6,35.4,29.4,40,29c0.1,0,1.2-0.1,1.3-0.2c18.2-4.2,37.1-4.2,55.3,0.2c4.8,0.4,4.3-0.5,40-28.9v103.6
		c0.1,15.7-6.1,30.9-17.1,42.1v-9.2c0-18.9-15.3-34.1-34.1-34.1c-18.6,0-18,0.3-18.8-1s-0.9-0.5,9.4-20.8c2.1-4.2,0.4-9.3-3.8-11.5
		c-4.2-2.1-9.3-0.4-11.5,3.8c-9.3,18.5-12.1,21.9-11.2,29.6c-18.1,0.9-32.3,15.8-32.4,34v9.2c-11-11.3-17.1-26.4-17.1-42.1
		L76.7,153.5z"/>
	<path id="Shape_1_" class="st0" d="M110.9,230.4h8.5c4.7,0,8.5-3.8,8.5-8.5c0-4.7-3.8-8.5-8.5-8.5h-8.5c-4.7,0-8.5,3.8-8.5,8.5
		C102.4,226.6,106.2,230.4,110.9,230.4z"/>
	<path id="Shape_2_" class="st0" d="M170.7,230.4h8.5c4.7,0,8.5-3.8,8.5-8.5c0-4.7-3.8-8.5-8.5-8.5h-8.5c-4.7,0-8.5,3.8-8.5,8.5
		C162.1,226.6,166,230.4,170.7,230.4z"/>
	<path id="Shape_3_" class="st0" d="M153.6,281.6h-17.1c-4.7,0-8.5,3.8-8.5,8.5c0,4.7,3.8,8.5,8.5,8.5h17.1c4.7,0,8.5-3.8,8.5-8.5
		C162.1,285.4,158.3,281.6,153.6,281.6z"/>
	<path id="Shape_4_" class="st0" d="M110.9,102.4h2.6l-2.1,5.5c-1.6,4.4,0.6,9.3,5,11c4.4,1.6,9.3-0.6,11-5l4.3-11.5h15.9l-2.1,5.5
		c-1.6,4.4,0.6,9.3,5,11c4.4,1.6,9.3-0.6,11-5l4.3-11.5h13.3c4.7,0,8.5-3.8,8.5-8.5c0-4.7-3.8-8.5-8.5-8.5h-6.9l6.4-17.1h9
		c4.7,0,8.5-3.8,8.5-8.5s-3.8-8.5-8.5-8.5h-2.6l2.1-5.5c1.6-4.4-0.6-9.3-5-11c-4.4-1.6-9.3,0.6-11,5l-4.3,11.5H151l2.1-5.5
		c1.6-4.4-0.6-9.3-5-11s-9.3,0.6-11,5l-4.3,11.5h-13.3c-4.7,0-8.5,3.8-8.5,8.5s3.8,8.5,8.5,8.5h6.9L120,85.3h-9
		c-4.7,0-8.5,3.8-8.5,8.5C102.4,98.6,106.2,102.4,110.9,102.4L110.9,102.4z M144.6,68.3h15.9l-6.4,17.1h-15.9L144.6,68.3z"/>
	<path id="Shape_5_" class="st0" d="M204.8,119.5h42.7c4.7,0,8.5-3.8,8.5-8.5c0-4.7-3.8-8.5-8.5-8.5h-13.3l21.3-56.7
		c1.3-3.5,0.2-7.4-2.7-9.7s-7-2.5-10.1-0.4l-25.6,17.1c-2.5,1.7-4,4.6-3.8,7.7s2,5.7,4.7,7.1c2.7,1.4,6,1.1,8.5-0.6l3.6-2.4
		l-14.2,38h-11.2c-4.7,0-8.5,3.8-8.5,8.5C196.3,115.6,200.1,119.5,204.8,119.5L204.8,119.5z"/>
	<path id="Shape_6_" class="st0" d="M395.6,287c-22-22-55-28.5-83.7-16.7c-28.7,11.9-47.4,39.9-47.4,71s18.7,59.1,47.4,71
		c28.7,11.9,61.7,5.3,83.7-16.7C425.6,365.6,425.6,317,395.6,287z M383.6,383.6c-23.3,23.3-61.1,23.3-84.5,0
		c-23.3-23.3-23.3-61.1,0-84.5c23.3-23.3,61.1-23.3,84.5,0c11.2,11.2,17.5,26.4,17.5,42.2S394.8,372.4,383.6,383.6L383.6,383.6z"/>
	<path id="Shape_7_" class="st0" d="M440.1,391.8c21.9-43,13.6-95.2-20.6-129.1s-86.5-42-129.3-19.7V17.1c0-9.4-7.6-17.1-17.1-17.1
		H25.6C11.5,0,0,11.5,0,25.6V384c0,14.1,11.5,25.6,25.6,25.6H254c32.7,41.9,90.5,54.7,137.8,30.5c131.4,131.4,2.8,2.8,62,61.9
		c13.4,12.5,34.4,12.2,47.4-0.8c13-13,13.4-34,0.8-47.4L440.1,391.8z M25.6,17.1h247.5V254c-31.7,24.7-47.5,64.7-41.2,104.4
		c-225.8,0-208.5-0.7-214.8,1.6V25.6C17.1,20.9,20.9,17.1,25.6,17.1z M25.6,392.5c-4.7,0-8.5-3.8-8.5-8.5s3.8-8.5,8.5-8.5h210.3
		c1.9,5.9,4.2,11.6,7,17.1H25.6z M275,407.7c-26.8-26.8-34.9-67.2-20.3-102.3s48.8-57.9,86.7-57.9s72.2,22.9,86.7,57.9
		c14.5,35.1,6.5,75.5-20.3,102.3C371,444.3,311.6,444.3,275,407.7L275,407.7z M430.8,406.7l13.1,13.1l-24.1,24.1l-13.1-13.1
		C416,424.2,424.2,416,430.8,406.7z M489.9,489.9c-6.8,6.4-17.3,6.4-24.1,0l-34-34l24.1-24.1l34,34
		C496.6,472.5,496.6,483.3,489.9,489.9z"/>
	<path id="Shape_8_" class="st0" d="M328.8,297.8c-1.3,0.4-31.4,10.8-31.4,42.2c0,4.7,3.8,8.5,8.5,8.5s8.5-3.8,8.5-8.5
		c0.7-11.9,8.5-22.2,19.8-26c2.9-1,5.1-3.4,5.7-6.4s-0.4-6.1-2.7-8.1C334.9,297.5,331.7,296.8,328.8,297.8L328.8,297.8z"/>
	<path id="Shape_9_" class="st0" d="M42.7,59.7c4.7,0,8.5-3.8,8.5-8.5v-8.5c0-4.7-3.8-8.5-8.5-8.5s-8.5,3.8-8.5,8.5v8.5
		C34.1,55.9,38,59.7,42.7,59.7z"/>
	<path id="Shape_10_" class="st0" d="M42.7,145.1c4.7,0,8.5-3.8,8.5-8.5V85.3c0-4.7-3.8-8.5-8.5-8.5s-8.5,3.8-8.5,8.5v51.2
		C34.1,141.2,38,145.1,42.7,145.1z"/>
</g>
</svg>
