<?xml version="1.0" encoding="utf-8"?>
<!-- Generator: Adobe Illustrator 25.1.0, SVG Export Plug-In . SVG Version: 6.00 Build 0)  -->
<svg version="1.1" id="Layer_1" xmlns="http://www.w3.org/2000/svg" xmlns:xlink="http://www.w3.org/1999/xlink" x="0px" y="0px"
	 viewBox="0 0 1250 1250" style="enable-background:new 0 0 1250 1250;" xml:space="preserve">
<style type="text/css">
	.st0{fill-rule:evenodd;clip-rule:evenodd;fill:#781D1E;}
</style>
<g>
	<path class="st0" d="M620.9,849c1.2,1.4,2.5,2.7,4,4.3c1.6-1.8,3-3.3,4.3-4.8c77.6-87.8,155.1-175.6,232.7-263.4
		c70.7-80,141.3-160,212.1-239.9c3.1-3.6,3.4-5.9,0.7-9.8c-21.6-32.7-46.3-62.8-74.2-90.4c-3.9-3.9-6.5-4.7-11.3-0.8
		c-79.1,63.4-158.4,126.5-237.6,189.7c-1.6,1.2-3.2,2.5-4.8,3.7c-0.6-0.8-1-1.2-1.2-1.7c-17-38.2-35.4-75.9-50.6-114.8
		c-10-25.6,1.8-41.7,23.5-45.9c10.8-2.1,22.1-1,33.2-1.3c1.5,0,3.1,0.2,4.5,0.3c-0.1-13.8-5.8-23.3-18.4-27.6
		c-9.5-3.2-19.2-5.9-29-7.8c-10.9-2.1-22-3.1-33.1-4.6c-12.6,0-25.3,0-37.9,0c-1.8,0.4-3.5,1-5.3,1.1c-22.5,1.3-39.9,11-50.8,31.1
		c-8.6,15.8-17.4,31.6-24.7,48c-16.7,37.3-32.5,75-48.7,112.6c-1.5,3.4-3,6.8-4.8,10.7C421,371.6,338.8,305.7,255.6,238.9
		c-1.8,2.4-3,4.5-4.7,6.2c-28.3,27.9-53.3,58.5-75.1,91.8c-2.9,4.4-2.6,6.8,0.8,10.7C324.8,514.6,472.8,681.8,620.9,849z"/>
	<path class="st0" d="M624.9,874.3c-35.1-39.2-69.9-78-105-117.2c-69.6,102-138.7,203.3-207.9,304.8c1.2,1,2,1.7,2.9,2.4
		c75.7,53.7,159.6,85.9,251.9,96.2c10.7,1.2,21.4,2.2,32.1,3.3c17.9,0,35.7,0,53.6,0c6.4-0.7,12.9-1.4,19.3-2
		c96.3-8.4,183.8-40.5,262.9-96c1.4-1,2.8-2.2,4.4-3.5c-69.8-101.8-139.3-203.2-209.2-305.2C694.7,796.4,660,835.2,624.9,874.3z"/>
	<path class="st0" d="M261.5,495c1.2-1.1,2.8-1.7,4.3-2.7c-36-43.4-70.9-85.6-106.1-128.1c-1,1.4-1.7,2.2-2.2,3.1
		C122.7,430,101.2,497,93.3,568.2c-1.2,11-2.2,22.1-3.3,33.2c0,16,0,32,0,48c1.5-1.1,3-2.2,4.4-3.4
		C150.1,595.6,205.8,545.3,261.5,495z"/>
	<path class="st0" d="M1159,597.1c-4.9-80.6-26.9-156.3-65.9-227.1c-0.7-1.3-1.7-2.6-2.8-4.2c-35.4,42.7-70.3,84.9-105.9,127.8
		c1.4,1,2.6,1.7,3.5,2.5c56,50.6,111.9,101.2,167.9,151.7c1.2,1.1,2.7,1.8,4.1,2.7c0-15.6,0-31.2,0-46.9
		C1159.7,601.4,1159.2,599.3,1159,597.1z"/>
	<path class="st0" d="M371,619.3c-1.4,1.7-2.2,2.8-3.1,3.7c-73,79.9-146.1,159.7-219.2,239.5c-2.4,2.6-2.7,4.5-1,7.7
		c23.7,46.4,53.4,88.4,89.1,126.2c1,1,2.1,1.9,3.4,3c73.7-90.6,147.2-180.8,220.9-271.3C431.1,691.9,401.4,656,371,619.3z"/>
	<path class="st0" d="M950.6,699.5c-23.7-25.9-47.4-51.8-71.7-78.4c-30.2,36.5-60.1,72.5-89.9,108.6
		c73.9,90.8,147.3,181,221.9,272.6c1.1-1.9,1.8-3.6,2.9-4.8c35.3-37.4,64.6-79.1,88.2-124.8c2.1-4.1,1.4-6.3-1.5-9.5
		C1050.4,808.6,1000.5,754,950.6,699.5z"/>
	<path class="st0" d="M274.2,502.4c-0.8,0.3-1.2,0.4-1.4,0.6C213,556.5,153.3,609.9,93.6,663.5c-1.3,1.2-2.2,3.9-2,5.8
		c3.4,43.9,11.6,86.9,26,128.6c6.6,19.1,14.3,37.8,22.1,58.1c75.5-82.7,149.7-164,224-245.4C333.6,574.1,303.8,538.2,274.2,502.4z"
		/>
	<path class="st0" d="M1153.1,661.8c-57.6-51.3-115-102.9-172.5-154.3c-1.3-1.2-2.8-2.3-4.5-3.8c-30,36.2-59.7,72.1-89.8,108.3
		c74.3,81.4,148.5,162.7,223.2,244.6c1.3-2.6,2.1-4.3,2.8-5.9c25.4-56.1,40.6-114.8,45.9-176.1
		C1158.7,668.9,1157.2,665.5,1153.1,661.8z"/>
	<path class="st0" d="M625,7.5C284,7.5,7.5,284,7.5,625c0,341,276.5,617.5,617.5,617.5c341,0,617.5-276.4,617.5-617.5
		C1242.5,284,966,7.5,625,7.5z M623.8,1182.5c-307.9,0-557.5-249.6-557.5-557.5c0-307.9,249.6-557.5,557.5-557.5
		c307.9,0,557.5,249.6,557.5,557.5C1181.3,932.9,931.7,1182.5,623.8,1182.5z"/>
</g>
</svg>
